<svg xmlns="http://www.w3.org/2000/svg" xmlns:xlink="http://www.w3.org/1999/xlink" width="600" height="400" version="1.1"><polyline fill="none" stroke="#000" stroke-width="1" points="36.389 370.947 36.389 374.947"/><polyline fill="none" stroke="#000" stroke-width="1" points="55.428 370.947 55.428 374.947"/><polyline fill="none" stroke="#000" stroke-width="1" points="74.467 370.947 74.467 374.947"/><polyline fill="none" stroke="#000" stroke-width="1" points="112.546 370.947 112.546 374.947"/><polyline fill="none" stroke="#000" stroke-width="1" points="131.585 370.947 131.585 374.947"/><polyline fill="none" stroke="#000" stroke-width="1" points="150.624 370.947 150.624 374.947"/><polyline fill="none" stroke="#000" stroke-width="1" points="169.663 370.947 169.663 374.947"/><polyline fill="none" stroke="#000" stroke-width="1" points="207.742 370.947 207.742 374.947"/><polyline fill="none" stroke="#000" stroke-width="1" points="226.781 370.947 226.781 374.947"/><polyline fill="none" stroke="#000" stroke-width="1" points="245.821 370.947 245.821 374.947"/><polyline fill="none" stroke="#000" stroke-width="1" points="264.86 370.947 264.86 374.947"/><polyline fill="none" stroke="#000" stroke-width="1" points="302.938 370.947 302.938 374.947"/><polyline fill="none" stroke="#000" stroke-width="1" points="321.978 370.947 321.978 374.947"/><polyline fill="none" stroke="#000" stroke-width="1" points="341.017 370.947 341.017 374.947"/><polyline fill="none" stroke="#000" stroke-width="1" points="360.056 370.947 360.056 374.947"/><polyline fill="none" stroke="#000" stroke-width="1" points="398.135 370.947 398.135 374.947"/><polyline fill="none" stroke="#000" stroke-width="1" points="417.174 370.947 417.174 374.947"/><polyline fill="none" stroke="#000" stroke-width="1" points="436.213 370.947 436.213 374.947"/><polyline fill="none" stroke="#000" stroke-width="1" points="455.252 370.947 455.252 374.947"/><polyline fill="none" stroke="#000" stroke-width="1" points="493.331 370.947 493.331 374.947"/><polyline fill="none" stroke="#000" stroke-width="1" points="512.37 370.947 512.37 374.947"/><polyline fill="none" stroke="#000" stroke-width="1" points="531.41 370.947 531.41 374.947"/><polyline fill="none" stroke="#000" stroke-width="1" points="550.449 370.947 550.449 374.947"/><polyline fill="none" stroke="#000" stroke-width="1" points="588.527 370.947 588.527 374.947"/><polyline fill="none" stroke="#000" stroke-width="1" points="34.498 353.043 30.498 353.043"/><polyline fill="none" stroke="#000" stroke-width="1" points="34.498 340.84 30.498 340.84"/><polyline fill="none" stroke="#000" stroke-width="1" points="34.498 328.637 30.498 328.637"/><polyline fill="none" stroke="#000" stroke-width="1" points="34.498 316.434 30.498 316.434"/><polyline fill="none" stroke="#000" stroke-width="1" points="34.498 292.027 30.498 292.027"/><polyline fill="none" stroke="#000" stroke-width="1" points="34.498 279.824 30.498 279.824"/><polyline fill="none" stroke="#000" stroke-width="1" points="34.498 267.621 30.498 267.621"/><polyline fill="none" stroke="#000" stroke-width="1" points="34.498 255.418 30.498 255.418"/><polyline fill="none" stroke="#000" stroke-width="1" points="34.498 231.011 30.498 231.011"/><polyline fill="none" stroke="#000" stroke-width="1" points="34.498 218.808 30.498 218.808"/><polyline fill="none" stroke="#000" stroke-width="1" points="34.498 206.605 30.498 206.605"/><polyline fill="none" stroke="#000" stroke-width="1" points="34.498 194.402 30.498 194.402"/><polyline fill="none" stroke="#000" stroke-width="1" points="34.498 169.995 30.498 169.995"/><polyline fill="none" stroke="#000" stroke-width="1" points="34.498 157.792 30.498 157.792"/><polyline fill="none" stroke="#000" stroke-width="1" points="34.498 145.589 30.498 145.589"/><polyline fill="none" stroke="#000" stroke-width="1" points="34.498 133.386 30.498 133.386"/><polyline fill="none" stroke="#000" stroke-width="1" points="34.498 108.98 30.498 108.98"/><polyline fill="none" stroke="#000" stroke-width="1" points="34.498 96.776 30.498 96.776"/><polyline fill="none" stroke="#000" stroke-width="1" points="34.498 84.573 30.498 84.573"/><polyline fill="none" stroke="#000" stroke-width="1" points="34.498 72.37 30.498 72.37"/><polyline fill="none" stroke="#000" stroke-width="1" points="34.498 47.964 30.498 47.964"/><polyline fill="none" stroke="#000" stroke-width="1" points="34.498 35.76 30.498 35.76"/><text fill="#000" dominant-baseline="hanging" font-family="Segoe UI" font-size="12" font-weight="400" text-anchor="middle" transform="translate(93.5063,381.947)">-1</text><text fill="#000" dominant-baseline="hanging" font-family="Segoe UI" font-size="12" font-weight="400" text-anchor="middle" transform="translate(188.7027,381.947)">-0.5</text><text fill="#000" dominant-baseline="hanging" font-family="Segoe UI" font-size="12" font-weight="400" text-anchor="middle" transform="translate(283.899,381.947)">0</text><text fill="#000" dominant-baseline="hanging" font-family="Segoe UI" font-size="12" font-weight="400" text-anchor="middle" transform="translate(379.0954,381.947)">0.5</text><text fill="#000" dominant-baseline="hanging" font-family="Segoe UI" font-size="12" font-weight="400" text-anchor="middle" transform="translate(474.2918,381.947)">1</text><text fill="#000" dominant-baseline="hanging" font-family="Segoe UI" font-size="12" font-weight="400" text-anchor="middle" transform="translate(569.4881,381.947)">1.5</text><polyline fill="none" stroke="#000" stroke-width="1" points="93.506 370.947 93.506 377.947"/><polyline fill="none" stroke="#000" stroke-width="1" points="188.703 370.947 188.703 377.947"/><polyline fill="none" stroke="#000" stroke-width="1" points="283.899 370.947 283.899 377.947"/><polyline fill="none" stroke="#000" stroke-width="1" points="379.095 370.947 379.095 377.947"/><polyline fill="none" stroke="#000" stroke-width="1" points="474.292 370.947 474.292 377.947"/><polyline fill="none" stroke="#000" stroke-width="1" points="569.488 370.947 569.488 377.947"/><text fill="#000" dominant-baseline="middle" font-family="Segoe UI" font-size="12" font-weight="400" text-anchor="end" transform="translate(23.498,365.2465)">-1.5</text><text fill="#000" dominant-baseline="middle" font-family="Segoe UI" font-size="12" font-weight="400" text-anchor="end" transform="translate(23.498,304.2306)">-1</text><text fill="#000" dominant-baseline="middle" font-family="Segoe UI" font-size="12" font-weight="400" text-anchor="end" transform="translate(23.498,243.2146)">-0.5</text><text fill="#000" dominant-baseline="middle" font-family="Segoe UI" font-size="12" font-weight="400" text-anchor="end" transform="translate(23.498,182.1987)">0</text><text fill="#000" dominant-baseline="middle" font-family="Segoe UI" font-size="12" font-weight="400" text-anchor="end" transform="translate(23.498,121.1827)">0.5</text><text fill="#000" dominant-baseline="middle" font-family="Segoe UI" font-size="12" font-weight="400" text-anchor="end" transform="translate(23.498,60.1668)">1</text><polyline fill="none" stroke="#000" stroke-width="1" points="34.498 365.247 27.498 365.247"/><polyline fill="none" stroke="#000" stroke-width="1" points="34.498 304.231 27.498 304.231"/><polyline fill="none" stroke="#000" stroke-width="1" points="34.498 243.215 27.498 243.215"/><polyline fill="none" stroke="#000" stroke-width="1" points="34.498 182.199 27.498 182.199"/><polyline fill="none" stroke="#000" stroke-width="1" points="34.498 121.183 27.498 121.183"/><polyline fill="none" stroke="#000" stroke-width="1" points="34.498 60.167 27.498 60.167"/><ellipse cx="488.788" cy="183.132" fill="#F0F" stroke="none" rx="5" ry="5"/><ellipse cx="540.8" cy="183.175" fill="#F0F" stroke="none" rx="5" ry="5"/><ellipse cx="480.94" cy="164.374" fill="#F0F" stroke="none" rx="5" ry="5"/><ellipse cx="410.606" cy="191.006" fill="#F0F" stroke="none" rx="5" ry="5"/><ellipse cx="496.827" cy="189.344" fill="#F0F" stroke="none" rx="5" ry="5"/><ellipse cx="522.996" cy="181.427" fill="#F0F" stroke="none" rx="5" ry="5"/><ellipse cx="391.231" cy="188.123" fill="#F0F" stroke="none" rx="5" ry="5"/><ellipse cx="417.401" cy="180.206" fill="#F0F" stroke="none" rx="5" ry="5"/><ellipse cx="552.326" cy="167.3" fill="#F0F" stroke="none" rx="5" ry="5"/><ellipse cx="410.606" cy="191.006" fill="#F0F" stroke="none" rx="5" ry="5"/><ellipse cx="567.161" cy="162.712" fill="#F0F" stroke="none" rx="5" ry="5"/><ellipse cx="586.535" cy="165.595" fill="#F0F" stroke="none" rx="5" ry="5"/><ellipse cx="415.794" cy="181.874" fill="#F0F" stroke="none" rx="5" ry="5"/><ellipse cx="502.015" cy="180.212" fill="#F0F" stroke="none" rx="5" ry="5"/><ellipse cx="487.181" cy="184.8" fill="#F0F" stroke="none" rx="5" ry="5"/><ellipse cx="408.999" cy="192.673" fill="#F0F" stroke="none" rx="5" ry="5"/><ellipse cx="408.999" cy="192.673" fill="#F0F" stroke="none" rx="5" ry="5"/><ellipse cx="423.833" cy="188.086" fill="#F0F" stroke="none" rx="5" ry="5"/><ellipse cx="539.193" cy="184.843" fill="#F0F" stroke="none" rx="5" ry="5"/><ellipse cx="397.472" cy="208.549" fill="#F0F" stroke="none" rx="5" ry="5"/><ellipse cx="404.268" cy="197.75" fill="#F0F" stroke="none" rx="5" ry="5"/><ellipse cx="475.654" cy="200.675" fill="#F0F" stroke="none" rx="5" ry="5"/><ellipse cx="404.268" cy="197.75" fill="#F0F" stroke="none" rx="5" ry="5"/><ellipse cx="338.238" cy="204.729" fill="#F0F" stroke="none" rx="5" ry="5"/><ellipse cx="423.642" cy="200.632" fill="#F0F" stroke="none" rx="5" ry="5"/><ellipse cx="84.401" cy="192.307" fill="#00BF7F" stroke="none" rx="5" ry="5"/><ellipse cx="124.116" cy="142.302" fill="#00BF7F" stroke="none" rx="5" ry="5"/><ellipse cx="179.173" cy="137.639" fill="#00BF7F" stroke="none" rx="5" ry="5"/><ellipse cx="250.893" cy="95.356" fill="#00BF7F" stroke="none" rx="5" ry="5"/><ellipse cx="135.838" cy="118.527" fill="#00BF7F" stroke="none" rx="5" ry="5"/><ellipse cx="40.018" cy="158.656" fill="#00BF7F" stroke="none" rx="5" ry="5"/><ellipse cx="239.238" cy="110.855" fill="#00BF7F" stroke="none" rx="5" ry="5"/><ellipse cx="187.688" cy="104.013" fill="#00BF7F" stroke="none" rx="5" ry="5"/><ellipse cx="148.298" cy="76.732" fill="#00BF7F" stroke="none" rx="5" ry="5"/><ellipse cx="173.288" cy="131.65" fill="#00BF7F" stroke="none" rx="5" ry="5"/><ellipse cx="78.384" cy="151.046" fill="#00BF7F" stroke="none" rx="5" ry="5"/><ellipse cx="103.906" cy="47.468" fill="#00BF7F" stroke="none" rx="5" ry="5"/><ellipse cx="116.662" cy="54.154" fill="#00BF7F" stroke="none" rx="5" ry="5"/><ellipse cx="275.577" cy="130.254" fill="#00BF7F" stroke="none" rx="5" ry="5"/><ellipse cx="218.02" cy="220.055" fill="red" stroke="none" rx="5" ry="5"/><ellipse cx="132.215" cy="243.669" fill="red" stroke="none" rx="5" ry="5"/><ellipse cx="225.776" cy="285.916" fill="red" stroke="none" rx="5" ry="5"/><ellipse cx="206.165" cy="278.445" fill="red" stroke="none" rx="5" ry="5"/><ellipse cx="210.869" cy="214.237" fill="red" stroke="none" rx="5" ry="5"/><ellipse cx="182.956" cy="333.891" fill="red" stroke="none" rx="5" ry="5"/><ellipse cx="169.488" cy="367.562" fill="red" stroke="none" rx="5" ry="5"/><ellipse cx="169.488" cy="367.562" fill="red" stroke="none" rx="5" ry="5"/><ellipse cx="271.623" cy="118.298" fill="red" stroke="none" rx="5" ry="5"/><ellipse cx="356.434" cy="81.858" fill="red" stroke="none" rx="5" ry="5"/><ellipse cx="200.801" cy="107.113" fill="red" stroke="none" rx="5" ry="5"/><ellipse cx="262.117" cy="110.089" fill="red" stroke="none" rx="5" ry="5"/><ellipse cx="326.413" cy="165.16" fill="red" stroke="none" rx="5" ry="5"/><ellipse cx="216.485" cy="56.368" fill="red" stroke="none" rx="5" ry="5"/><ellipse cx="191.454" cy="137.362" fill="red" stroke="none" rx="5" ry="5"/><ellipse cx="163.78" cy="105.447" fill="red" stroke="none" rx="5" ry="5"/><ellipse cx="205.639" cy="172.318" fill="red" stroke="none" rx="5" ry="5"/><ellipse cx="240.522" cy="186.369" fill="red" stroke="none" rx="5" ry="5"/><ellipse cx="235.87" cy="194.052" fill="red" stroke="none" rx="5" ry="5"/><ellipse cx="261.202" cy="203.925" fill="red" stroke="none" rx="5" ry="5"/><ellipse cx="205.52" cy="160.418" fill="red" stroke="none" rx="5" ry="5"/><ellipse cx="187.677" cy="122.269" fill="red" stroke="none" rx="5" ry="5"/><ellipse cx="303.407" cy="32.431" fill="red" stroke="none" rx="5" ry="5"/><ellipse cx="351.466" cy="149.358" fill="red" stroke="none" rx="5" ry="5"/><ellipse cx="339.219" cy="188.08" fill="red" stroke="none" rx="5" ry="5"/><ellipse cx="300.335" cy="123.811" fill="red" stroke="none" rx="5" ry="5"/><ellipse cx="334.541" cy="187.974" fill="red" stroke="none" rx="5" ry="5"/><ellipse cx="337.612" cy="189.747" fill="red" stroke="none" rx="5" ry="5"/><ellipse cx="337.612" cy="189.747" fill="red" stroke="none" rx="5" ry="5"/><ellipse cx="318.661" cy="178.577" fill="red" stroke="none" rx="5" ry="5"/><ellipse cx="337.612" cy="189.747" fill="red" stroke="none" rx="5" ry="5"/><ellipse cx="309.802" cy="183.792" fill="red" stroke="none" rx="5" ry="5"/><ellipse cx="170.111" cy="160.32" fill="red" stroke="none" rx="5" ry="5"/><ellipse cx="218.845" cy="157.802" fill="red" stroke="none" rx="5" ry="5"/><ellipse cx="229.012" cy="185.117" fill="red" stroke="none" rx="5" ry="5"/><ellipse cx="247.963" cy="196.288" fill="red" stroke="none" rx="5" ry="5"/><ellipse cx="233.415" cy="192.264" fill="red" stroke="none" rx="5" ry="5"/><ellipse cx="192.744" cy="97.906" fill="red" stroke="none" rx="5" ry="5"/><ellipse cx="201.899" cy="139.674" fill="red" stroke="none" rx="5" ry="5"/><ellipse cx="261.064" cy="150.597" fill="red" stroke="none" rx="5" ry="5"/><ellipse cx="321.361" cy="185.25" fill="red" stroke="none" rx="5" ry="5"/><ellipse cx="204.507" cy="175.434" fill="red" stroke="none" rx="5" ry="5"/><ellipse cx="197.22" cy="139.569" fill="red" stroke="none" rx="5" ry="5"/><ellipse cx="218.049" cy="147.895" fill="red" stroke="none" rx="5" ry="5"/><ellipse cx="252.108" cy="197.567" fill="red" stroke="none" rx="5" ry="5"/><ellipse cx="220.298" cy="252.957" fill="red" stroke="none" rx="5" ry="5"/><ellipse cx="227.012" cy="183.858" fill="red" stroke="none" rx="5" ry="5"/><ellipse cx="194.577" cy="342.671" fill="red" stroke="none" rx="5" ry="5"/><ellipse cx="237.397" cy="294.697" fill="red" stroke="none" rx="5" ry="5"/><ellipse cx="237.397" cy="294.697" fill="red" stroke="none" rx="5" ry="5"/><ellipse cx="237.397" cy="294.697" fill="red" stroke="none" rx="5" ry="5"/><ellipse cx="194.577" cy="342.671" fill="red" stroke="none" rx="5" ry="5"/><ellipse cx="255.688" cy="113.688" fill="red" stroke="none" rx="5" ry="5"/><ellipse cx="324.641" cy="199.052" fill="red" stroke="none" rx="5" ry="5"/><ellipse cx="244.676" cy="150.478" fill="red" stroke="none" rx="5" ry="5"/><ellipse cx="213.842" cy="140.961" fill="red" stroke="none" rx="5" ry="5"/><ellipse cx="208.044" cy="309" fill="red" stroke="none" rx="5" ry="5"/><ellipse cx="208.044" cy="309" fill="red" stroke="none" rx="5" ry="5"/><ellipse cx="208.044" cy="309" fill="red" stroke="none" rx="5" ry="5"/><ellipse cx="231.253" cy="253.555" fill="red" stroke="none" rx="5" ry="5"/><ellipse cx="244.955" cy="167.094" fill="red" stroke="none" rx="5" ry="5"/><text fill="#000" dominant-baseline="hanging" font-family="Segoe UI" font-size="18" font-weight="700" text-anchor="middle" transform="translate(313.249,8)">Customer Segmentation</text><polygon fill="none" stroke="#000" stroke-width="1" points="34.498 29.079 592 29.079 592 370.947 34.498 370.947"/><polygon fill="none" stroke="none" points="509.516 37.08 584 37.08 584 83.239 509.516 83.239"/><text fill="#000" dominant-baseline="hanging" font-family="Segoe UI" font-size="12" font-weight="400" text-anchor="start" transform="translate(537.516,45.0795)">Cluster: 1</text><ellipse cx="525.516" cy="50.106" fill="#F0F" stroke="none" rx="5" ry="5"/><text fill="#000" dominant-baseline="hanging" font-family="Segoe UI" font-size="12" font-weight="400" text-anchor="start" transform="translate(537.516,55.1325)">Cluster: 2</text><ellipse cx="525.516" cy="60.159" fill="#00BF7F" stroke="none" rx="5" ry="5"/><text fill="#000" dominant-baseline="hanging" font-family="Segoe UI" font-size="12" font-weight="400" text-anchor="start" transform="translate(537.516,65.1855)">Cluster: 3</text><ellipse cx="525.516" cy="70.212" fill="red" stroke="none" rx="5" ry="5"/></svg>