<svg xmlns="http://www.w3.org/2000/svg" xmlns:xlink="http://www.w3.org/1999/xlink" width="600" height="400" version="1.1"><polyline fill="none" stroke="#000" stroke-width="1" points="38.136 370.947 38.136 374.947"/><polyline fill="none" stroke="#000" stroke-width="1" points="76.218 370.947 76.218 374.947"/><polyline fill="none" stroke="#000" stroke-width="1" points="95.259 370.947 95.259 374.947"/><polyline fill="none" stroke="#000" stroke-width="1" points="114.3 370.947 114.3 374.947"/><polyline fill="none" stroke="#000" stroke-width="1" points="133.342 370.947 133.342 374.947"/><polyline fill="none" stroke="#000" stroke-width="1" points="171.424 370.947 171.424 374.947"/><polyline fill="none" stroke="#000" stroke-width="1" points="190.465 370.947 190.465 374.947"/><polyline fill="none" stroke="#000" stroke-width="1" points="209.507 370.947 209.507 374.947"/><polyline fill="none" stroke="#000" stroke-width="1" points="228.548 370.947 228.548 374.947"/><polyline fill="none" stroke="#000" stroke-width="1" points="266.63 370.947 266.63 374.947"/><polyline fill="none" stroke="#000" stroke-width="1" points="285.672 370.947 285.672 374.947"/><polyline fill="none" stroke="#000" stroke-width="1" points="304.713 370.947 304.713 374.947"/><polyline fill="none" stroke="#000" stroke-width="1" points="323.754 370.947 323.754 374.947"/><polyline fill="none" stroke="#000" stroke-width="1" points="361.837 370.947 361.837 374.947"/><polyline fill="none" stroke="#000" stroke-width="1" points="380.878 370.947 380.878 374.947"/><polyline fill="none" stroke="#000" stroke-width="1" points="399.919 370.947 399.919 374.947"/><polyline fill="none" stroke="#000" stroke-width="1" points="418.96 370.947 418.96 374.947"/><polyline fill="none" stroke="#000" stroke-width="1" points="457.043 370.947 457.043 374.947"/><polyline fill="none" stroke="#000" stroke-width="1" points="476.084 370.947 476.084 374.947"/><polyline fill="none" stroke="#000" stroke-width="1" points="495.125 370.947 495.125 374.947"/><polyline fill="none" stroke="#000" stroke-width="1" points="514.166 370.947 514.166 374.947"/><polyline fill="none" stroke="#000" stroke-width="1" points="552.249 370.947 552.249 374.947"/><polyline fill="none" stroke="#000" stroke-width="1" points="571.29 370.947 571.29 374.947"/><polyline fill="none" stroke="#000" stroke-width="1" points="590.331 370.947 590.331 374.947"/><polyline fill="none" stroke="#000" stroke-width="1" points="34.498 365.604 30.498 365.604"/><polyline fill="none" stroke="#000" stroke-width="1" points="34.498 353.298 30.498 353.298"/><polyline fill="none" stroke="#000" stroke-width="1" points="34.498 328.687 30.498 328.687"/><polyline fill="none" stroke="#000" stroke-width="1" points="34.498 316.382 30.498 316.382"/><polyline fill="none" stroke="#000" stroke-width="1" points="34.498 304.077 30.498 304.077"/><polyline fill="none" stroke="#000" stroke-width="1" points="34.498 291.771 30.498 291.771"/><polyline fill="none" stroke="#000" stroke-width="1" points="34.498 267.16 30.498 267.16"/><polyline fill="none" stroke="#000" stroke-width="1" points="34.498 254.855 30.498 254.855"/><polyline fill="none" stroke="#000" stroke-width="1" points="34.498 242.549 30.498 242.549"/><polyline fill="none" stroke="#000" stroke-width="1" points="34.498 230.244 30.498 230.244"/><polyline fill="none" stroke="#000" stroke-width="1" points="34.498 205.633 30.498 205.633"/><polyline fill="none" stroke="#000" stroke-width="1" points="34.498 193.327 30.498 193.327"/><polyline fill="none" stroke="#000" stroke-width="1" points="34.498 181.022 30.498 181.022"/><polyline fill="none" stroke="#000" stroke-width="1" points="34.498 168.717 30.498 168.717"/><polyline fill="none" stroke="#000" stroke-width="1" points="34.498 144.106 30.498 144.106"/><polyline fill="none" stroke="#000" stroke-width="1" points="34.498 131.8 30.498 131.8"/><polyline fill="none" stroke="#000" stroke-width="1" points="34.498 119.495 30.498 119.495"/><polyline fill="none" stroke="#000" stroke-width="1" points="34.498 107.189 30.498 107.189"/><polyline fill="none" stroke="#000" stroke-width="1" points="34.498 82.579 30.498 82.579"/><polyline fill="none" stroke="#000" stroke-width="1" points="34.498 70.273 30.498 70.273"/><polyline fill="none" stroke="#000" stroke-width="1" points="34.498 57.968 30.498 57.968"/><polyline fill="none" stroke="#000" stroke-width="1" points="34.498 45.662 30.498 45.662"/><text fill="#000" dominant-baseline="hanging" font-family="Segoe UI" font-size="12" font-weight="400" text-anchor="middle" transform="translate(57.1768,381.947)">-1.5</text><text fill="#000" dominant-baseline="hanging" font-family="Segoe UI" font-size="12" font-weight="400" text-anchor="middle" transform="translate(152.3829,381.947)">-1</text><text fill="#000" dominant-baseline="hanging" font-family="Segoe UI" font-size="12" font-weight="400" text-anchor="middle" transform="translate(247.5891,381.947)">-0.5</text><text fill="#000" dominant-baseline="hanging" font-family="Segoe UI" font-size="12" font-weight="400" text-anchor="middle" transform="translate(342.7953,381.947)">0</text><text fill="#000" dominant-baseline="hanging" font-family="Segoe UI" font-size="12" font-weight="400" text-anchor="middle" transform="translate(438.0014,381.947)">0.5</text><text fill="#000" dominant-baseline="hanging" font-family="Segoe UI" font-size="12" font-weight="400" text-anchor="middle" transform="translate(533.2076,381.947)">1</text><polyline fill="none" stroke="#000" stroke-width="1" points="57.177 370.947 57.177 377.947"/><polyline fill="none" stroke="#000" stroke-width="1" points="152.383 370.947 152.383 377.947"/><polyline fill="none" stroke="#000" stroke-width="1" points="247.589 370.947 247.589 377.947"/><polyline fill="none" stroke="#000" stroke-width="1" points="342.795 370.947 342.795 377.947"/><polyline fill="none" stroke="#000" stroke-width="1" points="438.001 370.947 438.001 377.947"/><polyline fill="none" stroke="#000" stroke-width="1" points="533.208 370.947 533.208 377.947"/><text fill="#000" dominant-baseline="middle" font-family="Segoe UI" font-size="12" font-weight="400" text-anchor="end" transform="translate(23.498,340.9929)">-1</text><text fill="#000" dominant-baseline="middle" font-family="Segoe UI" font-size="12" font-weight="400" text-anchor="end" transform="translate(23.498,279.4656)">-0.5</text><text fill="#000" dominant-baseline="middle" font-family="Segoe UI" font-size="12" font-weight="400" text-anchor="end" transform="translate(23.498,217.9384)">0</text><text fill="#000" dominant-baseline="middle" font-family="Segoe UI" font-size="12" font-weight="400" text-anchor="end" transform="translate(23.498,156.4112)">0.5</text><text fill="#000" dominant-baseline="middle" font-family="Segoe UI" font-size="12" font-weight="400" text-anchor="end" transform="translate(23.498,94.8839)">1</text><text fill="#000" dominant-baseline="middle" font-family="Segoe UI" font-size="12" font-weight="400" text-anchor="end" transform="translate(23.498,33.3567)">1.5</text><polyline fill="none" stroke="#000" stroke-width="1" points="34.498 340.993 27.498 340.993"/><polyline fill="none" stroke="#000" stroke-width="1" points="34.498 279.466 27.498 279.466"/><polyline fill="none" stroke="#000" stroke-width="1" points="34.498 217.938 27.498 217.938"/><polyline fill="none" stroke="#000" stroke-width="1" points="34.498 156.411 27.498 156.411"/><polyline fill="none" stroke="#000" stroke-width="1" points="34.498 94.884 27.498 94.884"/><polyline fill="none" stroke="#000" stroke-width="1" points="34.498 33.357 27.498 33.357"/><ellipse cx="272.58" cy="317.007" fill="#F0F" stroke="none" rx="5" ry="5"/><ellipse cx="300.78" cy="236.496" fill="#F0F" stroke="none" rx="5" ry="5"/><ellipse cx="277.345" cy="254.48" fill="#F0F" stroke="none" rx="5" ry="5"/><ellipse cx="137.171" cy="218.933" fill="#F0F" stroke="none" rx="5" ry="5"/><ellipse cx="85.398" cy="220.961" fill="#F0F" stroke="none" rx="5" ry="5"/><ellipse cx="147.588" cy="234.767" fill="#F0F" stroke="none" rx="5" ry="5"/><ellipse cx="213.922" cy="208.714" fill="#F0F" stroke="none" rx="5" ry="5"/><ellipse cx="127.619" cy="212.392" fill="#F0F" stroke="none" rx="5" ry="5"/><ellipse cx="286.962" cy="210.36" fill="#F0F" stroke="none" rx="5" ry="5"/><ellipse cx="102.641" cy="220.584" fill="#F0F" stroke="none" rx="5" ry="5"/><ellipse cx="291.816" cy="209.274" fill="#F0F" stroke="none" rx="5" ry="5"/><ellipse cx="235.19" cy="212.388" fill="#F0F" stroke="none" rx="5" ry="5"/><ellipse cx="210.212" cy="220.58" fill="#F0F" stroke="none" rx="5" ry="5"/><ellipse cx="74.548" cy="233.121" fill="#F0F" stroke="none" rx="5" ry="5"/><ellipse cx="213.922" cy="208.714" fill="#F0F" stroke="none" rx="5" ry="5"/><ellipse cx="61.286" cy="238.446" fill="#F0F" stroke="none" rx="5" ry="5"/><ellipse cx="40.018" cy="234.772" fill="#F0F" stroke="none" rx="5" ry="5"/><ellipse cx="289.456" cy="208.664" fill="#F0F" stroke="none" rx="5" ry="5"/><ellipse cx="212.705" cy="218.883" fill="#F0F" stroke="none" rx="5" ry="5"/><ellipse cx="126.403" cy="222.562" fill="#F0F" stroke="none" rx="5" ry="5"/><ellipse cx="289.456" cy="208.664" fill="#F0F" stroke="none" rx="5" ry="5"/><ellipse cx="308.35" cy="220.973" fill="#F0F" stroke="none" rx="5" ry="5"/><ellipse cx="139.664" cy="217.237" fill="#F0F" stroke="none" rx="5" ry="5"/><ellipse cx="216.415" cy="207.017" fill="#F0F" stroke="none" rx="5" ry="5"/><ellipse cx="216.415" cy="207.017" fill="#F0F" stroke="none" rx="5" ry="5"/><ellipse cx="203.153" cy="212.343" fill="#F0F" stroke="none" rx="5" ry="5"/><ellipse cx="289.456" cy="208.664" fill="#F0F" stroke="none" rx="5" ry="5"/><ellipse cx="87.892" cy="219.265" fill="#F0F" stroke="none" rx="5" ry="5"/><ellipse cx="317.684" cy="209.668" fill="#F0F" stroke="none" rx="5" ry="5"/><ellipse cx="306.057" cy="215.63" fill="#F0F" stroke="none" rx="5" ry="5"/><ellipse cx="227.266" cy="194.858" fill="#F0F" stroke="none" rx="5" ry="5"/><ellipse cx="223.556" cy="206.724" fill="#F0F" stroke="none" rx="5" ry="5"/><ellipse cx="150.515" cy="205.077" fill="#F0F" stroke="none" rx="5" ry="5"/><ellipse cx="223.556" cy="206.724" fill="#F0F" stroke="none" rx="5" ry="5"/><ellipse cx="302.128" cy="203.761" fill="#F0F" stroke="none" rx="5" ry="5"/><ellipse cx="286.634" cy="197.052" fill="#F0F" stroke="none" rx="5" ry="5"/><ellipse cx="202.288" cy="203.049" fill="#F0F" stroke="none" rx="5" ry="5"/><ellipse cx="541.886" cy="199.721" fill="#00BF7F" stroke="none" rx="5" ry="5"/><ellipse cx="502.988" cy="258.082" fill="#00BF7F" stroke="none" rx="5" ry="5"/><ellipse cx="448.84" cy="266.671" fill="#00BF7F" stroke="none" rx="5" ry="5"/><ellipse cx="378.342" cy="309.452" fill="#00BF7F" stroke="none" rx="5" ry="5"/><ellipse cx="492.835" cy="279.998" fill="#00BF7F" stroke="none" rx="5" ry="5"/><ellipse cx="586.535" cy="226.165" fill="#00BF7F" stroke="none" rx="5" ry="5"/><ellipse cx="390.48" cy="291.939" fill="#00BF7F" stroke="none" rx="5" ry="5"/><ellipse cx="441.387" cy="300.94" fill="#00BF7F" stroke="none" rx="5" ry="5"/><ellipse cx="415.124" cy="185.964" fill="#00BF7F" stroke="none" rx="5" ry="5"/><ellipse cx="480.683" cy="327.242" fill="#00BF7F" stroke="none" rx="5" ry="5"/><ellipse cx="356.663" cy="282.075" fill="#00BF7F" stroke="none" rx="5" ry="5"/><ellipse cx="427.756" cy="296.507" fill="#00BF7F" stroke="none" rx="5" ry="5"/><ellipse cx="366.334" cy="289.152" fill="#00BF7F" stroke="none" rx="5" ry="5"/><ellipse cx="412.153" cy="343.949" fill="#00BF7F" stroke="none" rx="5" ry="5"/><ellipse cx="453.928" cy="268.219" fill="#00BF7F" stroke="none" rx="5" ry="5"/><ellipse cx="549.715" cy="243.718" fill="#00BF7F" stroke="none" rx="5" ry="5"/><ellipse cx="436.355" cy="264.945" fill="#00BF7F" stroke="none" rx="5" ry="5"/><ellipse cx="464.025" cy="297.849" fill="#00BF7F" stroke="none" rx="5" ry="5"/><ellipse cx="420.644" cy="221.101" fill="#00BF7F" stroke="none" rx="5" ry="5"/><ellipse cx="386.112" cy="212.902" fill="#00BF7F" stroke="none" rx="5" ry="5"/><ellipse cx="391.449" cy="204.803" fill="#00BF7F" stroke="none" rx="5" ry="5"/><ellipse cx="365.369" cy="193.946" fill="#00BF7F" stroke="none" rx="5" ry="5"/><ellipse cx="526.887" cy="360.934" fill="#00BF7F" stroke="none" rx="5" ry="5"/><ellipse cx="511.75" cy="344.454" fill="#00BF7F" stroke="none" rx="5" ry="5"/><ellipse cx="422.856" cy="242.991" fill="#00BF7F" stroke="none" rx="5" ry="5"/><ellipse cx="439.266" cy="276.838" fill="#00BF7F" stroke="none" rx="5" ry="5"/><ellipse cx="326.094" cy="367.562" fill="#00BF7F" stroke="none" rx="5" ry="5"/><ellipse cx="326.859" cy="277.479" fill="#00BF7F" stroke="none" rx="5" ry="5"/><ellipse cx="455.986" cy="232.828" fill="#00BF7F" stroke="none" rx="5" ry="5"/><ellipse cx="407.554" cy="239.526" fill="#00BF7F" stroke="none" rx="5" ry="5"/><ellipse cx="396.956" cy="211.675" fill="#00BF7F" stroke="none" rx="5" ry="5"/><ellipse cx="378.062" cy="199.366" fill="#00BF7F" stroke="none" rx="5" ry="5"/><ellipse cx="393.233" cy="204.545" fill="#00BF7F" stroke="none" rx="5" ry="5"/><ellipse cx="435.994" cy="307.932" fill="#00BF7F" stroke="none" rx="5" ry="5"/><ellipse cx="425.274" cy="260.139" fill="#00BF7F" stroke="none" rx="5" ry="5"/><ellipse cx="363.525" cy="246.145" fill="#00BF7F" stroke="none" rx="5" ry="5"/><ellipse cx="420.985" cy="216.743" fill="#00BF7F" stroke="none" rx="5" ry="5"/><ellipse cx="430.128" cy="259.053" fill="#00BF7F" stroke="none" rx="5" ry="5"/><ellipse cx="409.408" cy="249.726" fill="#00BF7F" stroke="none" rx="5" ry="5"/><ellipse cx="374.537" cy="199.22" fill="#00BF7F" stroke="none" rx="5" ry="5"/><ellipse cx="400.095" cy="217.078" fill="#00BF7F" stroke="none" rx="5" ry="5"/><ellipse cx="353.883" cy="271.889" fill="#00BF7F" stroke="none" rx="5" ry="5"/><ellipse cx="372.265" cy="291.393" fill="#00BF7F" stroke="none" rx="5" ry="5"/><ellipse cx="381.841" cy="250.285" fill="#00BF7F" stroke="none" rx="5" ry="5"/><ellipse cx="413.44" cy="261.514" fill="#00BF7F" stroke="none" rx="5" ry="5"/><ellipse cx="381.571" cy="234.636" fill="#00BF7F" stroke="none" rx="5" ry="5"/><ellipse cx="407.855" cy="180.675" fill="red" stroke="none" rx="5" ry="5"/><ellipse cx="493.982" cy="159.744" fill="red" stroke="none" rx="5" ry="5"/><ellipse cx="398.708" cy="116.097" fill="red" stroke="none" rx="5" ry="5"/><ellipse cx="418.726" cy="121.078" fill="red" stroke="none" rx="5" ry="5"/><ellipse cx="440.635" cy="66.367" fill="red" stroke="none" rx="5" ry="5"/><ellipse cx="453.59" cy="32.431" fill="red" stroke="none" rx="5" ry="5"/><ellipse cx="453.59" cy="32.431" fill="red" stroke="none" rx="5" ry="5"/><ellipse cx="405.223" cy="142.135" fill="red" stroke="none" rx="5" ry="5"/><ellipse cx="428.869" cy="56.099" fill="red" stroke="none" rx="5" ry="5"/><ellipse cx="386.942" cy="105.829" fill="red" stroke="none" rx="5" ry="5"/><ellipse cx="386.942" cy="105.829" fill="red" stroke="none" rx="5" ry="5"/><ellipse cx="386.942" cy="105.829" fill="red" stroke="none" rx="5" ry="5"/><ellipse cx="428.869" cy="56.099" fill="red" stroke="none" rx="5" ry="5"/><ellipse cx="415.914" cy="90.036" fill="red" stroke="none" rx="5" ry="5"/><ellipse cx="415.914" cy="90.036" fill="red" stroke="none" rx="5" ry="5"/><ellipse cx="415.914" cy="90.036" fill="red" stroke="none" rx="5" ry="5"/><ellipse cx="394.006" cy="144.746" fill="red" stroke="none" rx="5" ry="5"/><text fill="#000" dominant-baseline="hanging" font-family="Segoe UI" font-size="18" font-weight="700" text-anchor="middle" transform="translate(313.249,8)">Customer Segmentation</text><polygon fill="none" stroke="#000" stroke-width="1" points="34.498 29.079 592 29.079 592 370.947 34.498 370.947"/><polygon fill="none" stroke="none" points="509.516 37.08 584 37.08 584 83.239 509.516 83.239"/><text fill="#000" dominant-baseline="hanging" font-family="Segoe UI" font-size="12" font-weight="400" text-anchor="start" transform="translate(537.516,45.0795)">Cluster: 1</text><ellipse cx="525.516" cy="50.106" fill="#F0F" stroke="none" rx="5" ry="5"/><text fill="#000" dominant-baseline="hanging" font-family="Segoe UI" font-size="12" font-weight="400" text-anchor="start" transform="translate(537.516,55.1325)">Cluster: 2</text><ellipse cx="525.516" cy="60.159" fill="#00BF7F" stroke="none" rx="5" ry="5"/><text fill="#000" dominant-baseline="hanging" font-family="Segoe UI" font-size="12" font-weight="400" text-anchor="start" transform="translate(537.516,65.1855)">Cluster: 3</text><ellipse cx="525.516" cy="70.212" fill="red" stroke="none" rx="5" ry="5"/></svg>